<svg xmlns="http://www.w3.org/2000/svg" width="64" height="64" viewBox="0 0 64 64" role="img" aria-labelledby="title desc">
  <title id="title">霜铃 · 学习与对话</title>
  <desc id="desc">展开的书页与对话尾部组成的深灰和金色线性标识。</desc>
  <g fill="none" stroke-linecap="round" stroke-linejoin="round">
    <path d="M10 18.5c8-2.2 15.7-.8 22 3.6v29c-6.3-4.4-14-5.8-22-3.6v-29Z" stroke="#25272a" stroke-width="2.8"/>
    <path d="M32 22.1c6.3-4.4 14-5.8 22-3.6v21.8c0 1.7-.7 3.2-2 4.2l-8 6.2v-5.5c-4.4.8-8.5 2.8-12 5.9v-29Z" stroke="#8b6800" stroke-width="2.8"/>
    <path d="M17 26.6c2.7-.2 5.4.4 8 1.7M17 33.6c2.7-.2 5.4.4 8 1.7" stroke="#25272a" stroke-width="2.2"/>
    <path d="M39 28.3c2.4-1.1 5-1.6 7.7-1.4" stroke="#8b6800" stroke-width="2.2"/>
  </g>
</svg>
